<svg xmlns="http://www.w3.org/2000/svg" version="1.1" xmlnsXlink="http://www.w3.org/1999/xlink" xmlnsSvgjs="http://svgjs.com/svgjs" width="512" height="512" x="0" y="0" viewBox="0 0 32 32" style="enable-background:new 0 0 512 512" xml:space="preserve" class=""><g><path d="M16.85 29.62a14.36 14.36 0 0 1-5.76-27.5 1 1 0 0 1 1.32 1.32 12.36 12.36 0 0 0 16.27 16.27A1 1 0 0 1 30 21a14.36 14.36 0 0 1-13.15 8.59zM9.73 5.17a12.43 12.43 0 0 0-1.61 1.36 12.35 12.35 0 1 0 18.83 15.85 14.25 14.25 0 0 1-13.37-3.84A14.26 14.26 0 0 1 9.73 5.17z" fill="#7b61ff" data-original="#000000" class=""></path></g></svg>