<svg xmlns="http://www.w3.org/2000/svg" version="1.1" xmlnsXlink="http://www.w3.org/1999/xlink" width="512" height="512" x="0" y="0" viewBox="0 0 32 32" style="enable-background:new 0 0 512 512" xmlSpace="preserve" class=""><g><path d="M13.495 16a1.45 1.45 0 0 0 1.451 1.452h11.352l-1.703 1.896c-1.243 1.446.858 3.33 2.168 1.945l3.87-4.325c.322-.388.473-.957.281-1.442.135-.202-4.005-4.592-4.151-4.82-1.296-1.39-3.415.494-2.168 1.946l1.703 1.896H14.946A1.45 1.45 0 0 0 13.495 16z" fill="#80858B" opacity="1" data-original="#000000" class=""></path><path d="M19.872 1H4.388a3.39 3.39 0 0 0-3.387 3.387v23.226A3.39 3.39 0 0 0 4.388 31h15.484a3.39 3.39 0 0 0 3.387-3.387v-8.71h-8.313A2.912 2.912 0 0 1 12.043 16a2.912 2.912 0 0 1 2.903-2.903h8.313v-8.71A3.39 3.39 0 0 0 19.872 1z" fill="#80858B" opacity="1" data-original="#000000" class=""></path></g></svg>