<svg xmlns="http://www.w3.org/2000/svg" version="1.1" xmlnsXlink="http://www.w3.org/1999/xlink" xmlnsSvgjs="http://svgjs.com/svgjs" width="512" height="512" x="0" y="0" viewBox="0 0 47.576 47.576" style="enable-background:new 0 0 512 512" xml:space="preserve" class=""><g><path d="M24.235 12.13c-6.478 0-11.748 5.269-11.748 11.748s5.27 11.747 11.748 11.747 11.748-5.27 11.748-11.747-5.27-11.748-11.748-11.748zm0 21.145c-5.182 0-9.398-4.216-9.398-9.397 0-5.183 4.216-9.397 9.398-9.397 5.183 0 9.397 4.217 9.397 9.397 0 5.182-4.214 9.397-9.397 9.397zM23.06 6.485V1.589a1.174 1.174 0 0 1 2.35 0v4.896a1.176 1.176 0 0 1-2.35 0zm12.035 6.802a1.174 1.174 0 0 1 0-1.661l4.209-4.209a1.174 1.174 0 1 1 1.662 1.661l-4.209 4.209a1.18 1.18 0 0 1-1.662 0zM5.63 9.078a1.176 1.176 0 0 1 1.661-1.661l4.21 4.209a1.176 1.176 0 0 1-1.661 1.661L5.63 9.078zm18.842 32.013v4.896a1.174 1.174 0 1 1-2.348 0v-4.896a1.174 1.174 0 1 1 2.348 0zm-12.035-6.803a1.174 1.174 0 0 1 0 1.661l-4.209 4.21a1.17 1.17 0 0 1-1.661 0 1.175 1.175 0 0 1 0-1.662l4.209-4.209a1.174 1.174 0 0 1 1.661 0zm29.465 4.209a1.175 1.175 0 0 1-1.66 1.662l-4.209-4.21a1.174 1.174 0 1 1 1.66-1.661l4.209 4.209zM6.461 25.054H1.175a1.176 1.176 0 0 1 0-2.352h5.286a1.176 1.176 0 0 1 0 2.352zm41.115-1.176c0 .649-.526 1.176-1.174 1.176h-6.267a1.177 1.177 0 0 1 0-2.352h6.267c.648 0 1.174.526 1.174 1.176z" fill="#7b61ff" data-original="#000000" class=""></path></g></svg>