<svg xmlns="http://www.w3.org/2000/svg" version="1.1" xmlnsXlink="http://www.w3.org/1999/xlink" width="512" height="512" x="0" y="0" viewBox="0 0 68 68" style="enable-background:new 0 0 512 512" xmlSpace="preserve" class=""><g><path d="M64.915 9.14c0-3.94-3.2-7.14-7.14-7.14h-47.56c-3.93 0-7.13 3.2-7.13 7.14v29.14c0 3.93 3.2 7.13 7.13 7.13h11.66l-1.47 4.287a1.966 1.966 0 0 0-2.241.05l-2.632 1.905c-.866.615-1.093 1.833-.442 2.753l7.799 10.779c.31.43.766.708 1.287.79a1.952 1.952 0 0 0 1.466-.348l2.633-1.897c.675-.49.947-1.326.751-2.09l1.149-.37c3.84-1.22 7.45-3.02 10.73-5.35.69-.49 1.16-1.18 1.34-1.95.19-.85.15-2.05-.93-3.25.29-.5.36-.96.36-1.32-.02-.88-.49-1.75-1.44-2.66.1-.42.1-.87-.02-1.33h17.56c3.94 0 7.14-3.2 7.14-7.13V9.14zm-24.62 44.38c-.07.29-.27.57-.55.77a36.525 36.525 0 0 1-10.17 5.07l-1.36.44-6.21-8.59 4.16-12.19c.23-.65.92-1.02 1.58-.85.71.18 1.13.9.95 1.6l-1.35 5.28c-.03.12-.04.25-.01.36.02.29.18.55.42.72.34.24.8.23 1.14-.01l13.35-9.57a.932.932 0 0 1 1.3.22c.308.461.186 1.022-.23 1.3-.1.07-12.033 8.528-11.2 7.94-.45.32-.56.94-.23 1.39.293.432.905.563 1.39.24l4.04-2.88c.525.332 1.137 1.008.97 1.51l-.01.02-4.43 3.15c-.45.32-.55.95-.23 1.4.317.45.96.533 1.39.23l3.93-2.8c.64.64.73 1.02.74 1.17 0 .06 0 .27-.39.61a.08.08 0 0 0-.04.04v.01l-4.25 3.02c-.45.32-.55.95-.23 1.4.357.48.99.536 1.39.23l3.71-2.64c.52.6.5 1.08.43 1.41zm22.62-15.24c0 2.83-2.31 5.13-5.14 5.13h-18.55l5.24-3.7c.04-.02.07-.05.1-.08h5.73c1.35 0 2.45-1.1 2.45-2.46v-3c0-1.35-1.1-2.45-2.45-2.45h-8.12c-1.36 0-2.46 1.1-2.46 2.45v1.73l-9.75 6.99.67-2.62c.45-1.77-.62-3.58-2.38-4.04-1.68-.43-3.42.51-3.98 2.14l-1.72 5.04h-12.34c-2.83 0-5.13-2.3-5.13-5.13V9.14c0-2.84 2.3-5.14 5.13-5.14h47.56c2.83 0 5.14 2.3 5.14 5.14z" fill="#7b61ff" opacity="1" data-original="#000000" class=""></path><path d="M56.415 20.5h-20.37c-1.6 0-2.9 1.3-2.9 2.9v2.42c0 1.6 1.3 2.9 2.9 2.9h20.37c1.6 0 2.9-1.3 2.9-2.9V23.4c0-1.6-1.3-2.9-2.9-2.9zm.9 5.32c0 .5-.4.9-.9.9h-20.37c-.49 0-.9-.4-.9-.9V23.4c0-.5.41-.9.9-.9h20.37c.5 0 .9.4.9.9zM56.415 9.44h-20.37c-1.6 0-2.9 1.3-2.9 2.9v2.42c0 1.6 1.3 2.9 2.9 2.9h20.37c1.6 0 2.9-1.3 2.9-2.9v-2.42c0-1.6-1.3-2.9-2.9-2.9zm.9 5.32c0 .49-.4.9-.9.9h-20.37c-.49 0-.9-.41-.9-.9v-2.42c0-.5.41-.9.9-.9h20.37c.5 0 .9.4.9.9zM19.695 8.06c-6.07 0-11.02 4.95-11.02 11.03 0 5.95 4.836 11.01 11.02 11.01 6.224 0 11.02-5.093 11.02-11.01 0-6.08-4.94-11.03-11.02-11.03zm2.41 11.44c0 .26-.04.51-.12.75a2.542 2.542 0 0 1-2.44 1.81 2.52 2.52 0 0 1-2.41-1.73c-.1-.26-.15-.54-.15-.83v-2.46h5.12v2.46zm4.93 4.8a8.124 8.124 0 0 0-3.2-3.27c.18-.48.27-.99.27-1.53v-2.51c0-2.51-2.05-4.56-4.56-4.56-2.52 0-4.56 2.05-4.56 4.56v2.51c0 .59.11 1.16.32 1.68a8.124 8.124 0 0 0-2.95 3.12 8.847 8.847 0 0 1-1.68-5.21c0-4.98 4.05-9.03 9.02-9.03 4.98 0 9.02 4.05 9.02 9.03 0 1.89-.57 3.68-1.68 5.21z" fill="#7b61ff" opacity="1" data-original="#000000" class=""></path></g></svg>