<svg xmlns="http://www.w3.org/2000/svg" version="1.1" xmlnsXlink="http://www.w3.org/1999/xlink" width="512" height="512" x="0" y="0" viewBox="0 0 464 464" style="enable-background:new 0 0 512 512" xmlSpace="preserve" class=""><g><path d="M320 432H144v16h-32v16h240v-16h-32zM416 64H48v256h368zm-176 80h112v16H240zm-16 160H64v-16h160zm0-32H64v-16h160zm0-32H64v-23.855c0-17.77 11.93-33.579 29.008-38.473L120 169.969v-2.137c-9.969-7.512-16-19.328-16-31.832v-16a40.127 40.127 0 0 1 12.977-29.496c8.23-7.543 19.335-11.328 30.582-10.352 20.433 1.778 36.441 20 36.441 41.504V136c0 12.504-6.031 24.32-16 31.832v2.137l26.984 7.703C212.07 182.566 224 198.375 224 216.145zm176 64H240V176h160zm0-176H240v-16h160zm0-32H240V80h160zm0 0" fill="#7b61ff" opacity="1" data-original="#000000" class=""></path><path d="M256 192h128v96H256zM416 0H48v48h368zM80 32H64V16h16zm32 0H96V16h16zm32 0h-16V16h16zM190.586 193.063 152 182.03v-23.07l3.977-2.313C163.504 152.273 168 144.551 168 136v-14.344c0-13.273-9.586-24.504-21.832-25.558-6.832-.578-13.375 1.613-18.383 6.207A24.055 24.055 0 0 0 120 120v16c0 8.543 4.496 16.266 12.023 20.648l3.977 2.313v23.07l-38.594 11.031C87.16 195.993 80 205.488 80 216.145V224h128v-7.855c0-10.657-7.16-20.153-17.414-23.083zm0 0" fill="#7b61ff" opacity="1" data-original="#000000" class=""></path><path d="M440 112h-8v224H32V112h-8c-13.23 0-24 10.77-24 24v216h464V136c0-13.23-10.77-24-24-24zM0 392c0 13.23 10.77 24 24 24h416c13.23 0 24-10.77 24-24v-24H0zm96-8h16v16H96zm-32 0h16v16H64zm-32 0h16v16H32zm0 0" fill="#7b61ff" opacity="1" data-original="#000000" class=""></path></g></svg>